<?xml version="1.0" encoding="UTF-8"?> <svg xmlns="http://www.w3.org/2000/svg" fill="none" width="89" height="244" viewBox="0 0 89 244"><path fill="#292929" fill-rule="evenodd" d="M88.72 213.54c-.15-1.2-.57-1.6-1.57-1.8-1.61-.27-3.92 1.32-9.18 6.4-2.78 2.61-3.72 3.29-3.46 2.33 3.81-12.87 4.65-18.73 3.98-27.1-1.03-11.94-5.49-24.15-13.37-36.29l-4.43-6.83 5.16-7.04c5.6-7.53 7.71-12.16 9.23-19.64 1.51-7.56.95-19.47-1.2-27.42-1.34-4.66-4.9-11.55-8-15.29l-2.92-3.58 2.64-3.4c3.68-4.73 6-10.26 7.75-18.46 3.23-14.98-.46-28.9-11.7-44.49C55.52 2.56 51.7-.59 50.1 1.47c-.6.77-.14 1.79 2.16 4.97 6.46 8.99 9.23 13.28 12.1 19.14 6.72 13.64 5.6 30.58-2.88 43.62l-2.64 4.14-2.25-1.25c-10.48-5.84-17.22-7.45-26.68-6.22-10.73 1.4-16.98 8.58-14.69 16.88.78 2.92 5.8 7.3 10.02 8.77 8.05 2.79 20.94-.31 30.36-7.34l3.45-2.53 1.52 1.77c5.24 5.88 8.01 12.82 9.26 23.2 1.37 11.3-.92 22.21-6.62 31.24-2.62 4.23-6.44 7.87-7.26 6.9-.32-.34-2.94-2.7-5.75-5.23-10.59-9.2-23.59-14.12-33.18-12.5-5.41.91-9.12 2.81-12.34 6.33-6.97 7.7-5.28 17.93 4.02 23.59 11.16 6.86 28.62 6.48 42.55-.83 2.23-1.16 4.25-1.97 4.51-1.78 1.08.84 6.7 9.75 9.1 14.5 6.93 13.38 9.16 26.75 6.63 39.46-.78 4.18-4.95 17.2-5.78 18.27-.24.3-.8-1.52-1.12-4.08-1.75-11.01-5.16-19.36-8.2-19.9-3.18-.5-3.42 2.37-.86 9.8 1.03 3.03 2.45 10.65 3.36 17.96.82 6.91 1.84 12.81 2.2 13.09a4.3 4.3 0 0 0 2.2.56c1.45.05 2.2-.7 8.9-9.33a406.95 406.95 0 0 1 12.02-14.5c4.13-4.47 4.68-5.28 4.5-6.65l.01.02Zm-47.26-59.66c-10.12 3.27-22.79 2.25-29.55-2.42-4.26-2.9-5.74-5.46-5.14-8.78.9-4.75 6.88-9.18 12.84-9.4 3.66-.14 10.2 1.32 15.3 3.46 4.06 1.76 13.2 8.36 15.42 11.24l1.1 1.35-2.77 1.55a49.94 49.94 0 0 1-7.2 3Zm4.5-71.07c-5.32 2.71-13.16 4.2-17.35 3.33-5.96-1.24-9.43-5.59-7.69-9.52 1.78-3.98 10.94-6.1 19.54-4.54 4.12.74 11.27 3.32 13.27 4.79.77.6-3.12 3.6-7.75 5.94h-.01Z" clip-rule="evenodd"></path></svg> 